<?xml version="1.0" standalone="no"?>
<svg xmlns="http://www.w3.org/2000/svg" width="100" height="100"><defs><clipPath id="clip-path-dot-color"><rect x="0" y="32" width="4" height="4" transform="rotate(0,2,34)"/><rect x="0" y="52" width="4" height="4" transform="rotate(0,2,54)"/><rect x="0" y="56" width="4" height="4" transform="rotate(0,2,58)"/><rect x="0" y="60" width="4" height="4" transform="rotate(0,2,62)"/><rect x="0" y="64" width="4" height="4" transform="rotate(0,2,66)"/><rect x="4" y="32" width="4" height="4" transform="rotate(0,6,34)"/><rect x="4" y="44" width="4" height="4" transform="rotate(0,6,46)"/><rect x="4" y="48" width="4" height="4" transform="rotate(0,6,50)"/><rect x="4" y="52" width="4" height="4" transform="rotate(0,6,54)"/><rect x="4" y="64" width="4" height="4" transform="rotate(0,6,66)"/><rect x="8" y="32" width="4" height="4" transform="rotate(0,10,34)"/><rect x="8" y="36" width="4" height="4" transform="rotate(0,10,38)"/><rect x="8" y="48" width="4" height="4" transform="rotate(0,10,50)"/><rect x="12" y="32" width="4" height="4" transform="rotate(0,14,34)"/><rect x="12" y="36" width="4" height="4" transform="rotate(0,14,38)"/><rect x="12" y="40" width="4" height="4" transform="rotate(0,14,42)"/><rect x="12" y="56" width="4" height="4" transform="rotate(0,14,58)"/><rect x="12" y="64" width="4" height="4" transform="rotate(0,14,66)"/><rect x="16" y="36" width="4" height="4" transform="rotate(0,18,38)"/><rect x="16" y="40" width="4" height="4" transform="rotate(0,18,42)"/><rect x="16" y="48" width="4" height="4" transform="rotate(0,18,50)"/><rect x="16" y="52" width="4" height="4" transform="rotate(0,18,54)"/><rect x="16" y="60" width="4" height="4" transform="rotate(0,18,62)"/><rect x="20" y="32" width="4" height="4" transform="rotate(0,22,34)"/><rect x="20" y="36" width="4" height="4" transform="rotate(0,22,38)"/><rect x="20" y="40" width="4" height="4" transform="rotate(0,22,42)"/><rect x="20" y="52" width="4" height="4" transform="rotate(0,22,54)"/><rect x="20" y="56" width="4" height="4" transform="rotate(0,22,58)"/><rect x="20" y="64" width="4" height="4" transform="rotate(0,22,66)"/><rect x="24" y="32" width="4" height="4" transform="rotate(0,26,34)"/><rect x="24" y="40" width="4" height="4" transform="rotate(0,26,42)"/><rect x="24" y="48" width="4" height="4" transform="rotate(0,26,50)"/><rect x="24" y="56" width="4" height="4" transform="rotate(0,26,58)"/><rect x="24" y="64" width="4" height="4" transform="rotate(0,26,66)"/><rect x="28" y="40" width="4" height="4" transform="rotate(0,30,42)"/><rect x="28" y="44" width="4" height="4" transform="rotate(0,30,46)"/><rect x="28" y="56" width="4" height="4" transform="rotate(0,30,58)"/><rect x="28" y="60" width="4" height="4" transform="rotate(0,30,62)"/><rect x="32" y="0" width="4" height="4" transform="rotate(0,34,2)"/><rect x="32" y="4" width="4" height="4" transform="rotate(0,34,6)"/><rect x="32" y="16" width="4" height="4" transform="rotate(0,34,18)"/><rect x="32" y="20" width="4" height="4" transform="rotate(0,34,22)"/><rect x="32" y="24" width="4" height="4" transform="rotate(0,34,26)"/><rect x="32" y="40" width="4" height="4" transform="rotate(0,34,42)"/><rect x="32" y="76" width="4" height="4" transform="rotate(0,34,78)"/><rect x="32" y="84" width="4" height="4" transform="rotate(0,34,86)"/><rect x="32" y="88" width="4" height="4" transform="rotate(0,34,90)"/><rect x="32" y="92" width="4" height="4" transform="rotate(0,34,94)"/><rect x="32" y="96" width="4" height="4" transform="rotate(0,34,98)"/><rect x="36" y="4" width="4" height="4" transform="rotate(0,38,6)"/><rect x="36" y="8" width="4" height="4" transform="rotate(0,38,10)"/><rect x="36" y="12" width="4" height="4" transform="rotate(0,38,14)"/><rect x="36" y="16" width="4" height="4" transform="rotate(0,38,18)"/><rect x="36" y="32" width="4" height="4" transform="rotate(0,38,34)"/><rect x="36" y="52" width="4" height="4" transform="rotate(0,38,54)"/><rect x="36" y="60" width="4" height="4" transform="rotate(0,38,62)"/><rect x="36" y="64" width="4" height="4" transform="rotate(0,38,66)"/><rect x="36" y="80" width="4" height="4" transform="rotate(0,38,82)"/><rect x="36" y="84" width="4" height="4" transform="rotate(0,38,86)"/><rect x="36" y="92" width="4" height="4" transform="rotate(0,38,94)"/><rect x="40" y="4" width="4" height="4" transform="rotate(0,42,6)"/><rect x="40" y="24" width="4" height="4" transform="rotate(0,42,26)"/><rect x="40" y="28" width="4" height="4" transform="rotate(0,42,30)"/><rect x="40" y="32" width="4" height="4" transform="rotate(0,42,34)"/><rect x="40" y="36" width="4" height="4" transform="rotate(0,42,38)"/><rect x="40" y="40" width="4" height="4" transform="rotate(0,42,42)"/><rect x="40" y="44" width="4" height="4" transform="rotate(0,42,46)"/><rect x="40" y="48" width="4" height="4" transform="rotate(0,42,50)"/><rect x="40" y="52" width="4" height="4" transform="rotate(0,42,54)"/><rect x="40" y="56" width="4" height="4" transform="rotate(0,42,58)"/><rect x="40" y="60" width="4" height="4" transform="rotate(0,42,62)"/><rect x="40" y="64" width="4" height="4" transform="rotate(0,42,66)"/><rect x="40" y="72" width="4" height="4" transform="rotate(0,42,74)"/><rect x="40" y="76" width="4" height="4" transform="rotate(0,42,78)"/><rect x="40" y="84" width="4" height="4" transform="rotate(0,42,86)"/><rect x="40" y="88" width="4" height="4" transform="rotate(0,42,90)"/><rect x="44" y="8" width="4" height="4" transform="rotate(0,46,10)"/><rect x="44" y="16" width="4" height="4" transform="rotate(0,46,18)"/><rect x="44" y="20" width="4" height="4" transform="rotate(0,46,22)"/><rect x="44" y="36" width="4" height="4" transform="rotate(0,46,38)"/><rect x="44" y="56" width="4" height="4" transform="rotate(0,46,58)"/><rect x="44" y="64" width="4" height="4" transform="rotate(0,46,66)"/><rect x="44" y="72" width="4" height="4" transform="rotate(0,46,74)"/><rect x="44" y="80" width="4" height="4" transform="rotate(0,46,82)"/><rect x="44" y="88" width="4" height="4" transform="rotate(0,46,90)"/><rect x="44" y="92" width="4" height="4" transform="rotate(0,46,94)"/><rect x="48" y="4" width="4" height="4" transform="rotate(0,50,6)"/><rect x="48" y="12" width="4" height="4" transform="rotate(0,50,14)"/><rect x="48" y="20" width="4" height="4" transform="rotate(0,50,22)"/><rect x="48" y="24" width="4" height="4" transform="rotate(0,50,26)"/><rect x="48" y="28" width="4" height="4" transform="rotate(0,50,30)"/><rect x="48" y="32" width="4" height="4" transform="rotate(0,50,34)"/><rect x="48" y="48" width="4" height="4" transform="rotate(0,50,50)"/><rect x="48" y="56" width="4" height="4" transform="rotate(0,50,58)"/><rect x="48" y="68" width="4" height="4" transform="rotate(0,50,70)"/><rect x="48" y="72" width="4" height="4" transform="rotate(0,50,74)"/><rect x="48" y="84" width="4" height="4" transform="rotate(0,50,86)"/><rect x="48" y="88" width="4" height="4" transform="rotate(0,50,90)"/><rect x="48" y="92" width="4" height="4" transform="rotate(0,50,94)"/><rect x="48" y="96" width="4" height="4" transform="rotate(0,50,98)"/><rect x="52" y="0" width="4" height="4" transform="rotate(0,54,2)"/><rect x="52" y="4" width="4" height="4" transform="rotate(0,54,6)"/><rect x="52" y="16" width="4" height="4" transform="rotate(0,54,18)"/><rect x="52" y="28" width="4" height="4" transform="rotate(0,54,30)"/><rect x="52" y="32" width="4" height="4" transform="rotate(0,54,34)"/><rect x="52" y="36" width="4" height="4" transform="rotate(0,54,38)"/><rect x="52" y="40" width="4" height="4" transform="rotate(0,54,42)"/><rect x="52" y="44" width="4" height="4" transform="rotate(0,54,46)"/><rect x="52" y="52" width="4" height="4" transform="rotate(0,54,54)"/><rect x="52" y="60" width="4" height="4" transform="rotate(0,54,62)"/><rect x="52" y="64" width="4" height="4" transform="rotate(0,54,66)"/><rect x="52" y="68" width="4" height="4" transform="rotate(0,54,70)"/><rect x="52" y="80" width="4" height="4" transform="rotate(0,54,82)"/><rect x="52" y="92" width="4" height="4" transform="rotate(0,54,94)"/><rect x="56" y="20" width="4" height="4" transform="rotate(0,58,22)"/><rect x="56" y="24" width="4" height="4" transform="rotate(0,58,26)"/><rect x="56" y="36" width="4" height="4" transform="rotate(0,58,38)"/><rect x="56" y="44" width="4" height="4" transform="rotate(0,58,46)"/><rect x="56" y="56" width="4" height="4" transform="rotate(0,58,58)"/><rect x="56" y="60" width="4" height="4" transform="rotate(0,58,62)"/><rect x="56" y="64" width="4" height="4" transform="rotate(0,58,66)"/><rect x="56" y="76" width="4" height="4" transform="rotate(0,58,78)"/><rect x="56" y="80" width="4" height="4" transform="rotate(0,58,82)"/><rect x="56" y="84" width="4" height="4" transform="rotate(0,58,86)"/><rect x="56" y="88" width="4" height="4" transform="rotate(0,58,90)"/><rect x="60" y="8" width="4" height="4" transform="rotate(0,62,10)"/><rect x="60" y="12" width="4" height="4" transform="rotate(0,62,14)"/><rect x="60" y="20" width="4" height="4" transform="rotate(0,62,22)"/><rect x="60" y="32" width="4" height="4" transform="rotate(0,62,34)"/><rect x="60" y="36" width="4" height="4" transform="rotate(0,62,38)"/><rect x="60" y="40" width="4" height="4" transform="rotate(0,62,42)"/><rect x="60" y="44" width="4" height="4" transform="rotate(0,62,46)"/><rect x="60" y="76" width="4" height="4" transform="rotate(0,62,78)"/><rect x="60" y="80" width="4" height="4" transform="rotate(0,62,82)"/><rect x="60" y="88" width="4" height="4" transform="rotate(0,62,90)"/><rect x="60" y="92" width="4" height="4" transform="rotate(0,62,94)"/><rect x="64" y="0" width="4" height="4" transform="rotate(0,66,2)"/><rect x="64" y="4" width="4" height="4" transform="rotate(0,66,6)"/><rect x="64" y="12" width="4" height="4" transform="rotate(0,66,14)"/><rect x="64" y="16" width="4" height="4" transform="rotate(0,66,18)"/><rect x="64" y="24" width="4" height="4" transform="rotate(0,66,26)"/><rect x="64" y="28" width="4" height="4" transform="rotate(0,66,30)"/><rect x="64" y="36" width="4" height="4" transform="rotate(0,66,38)"/><rect x="64" y="44" width="4" height="4" transform="rotate(0,66,46)"/><rect x="64" y="60" width="4" height="4" transform="rotate(0,66,62)"/><rect x="64" y="64" width="4" height="4" transform="rotate(0,66,66)"/><rect x="64" y="68" width="4" height="4" transform="rotate(0,66,70)"/><rect x="64" y="72" width="4" height="4" transform="rotate(0,66,74)"/><rect x="64" y="76" width="4" height="4" transform="rotate(0,66,78)"/><rect x="64" y="80" width="4" height="4" transform="rotate(0,66,82)"/><rect x="64" y="84" width="4" height="4" transform="rotate(0,66,86)"/><rect x="64" y="88" width="4" height="4" transform="rotate(0,66,90)"/><rect x="68" y="32" width="4" height="4" transform="rotate(0,70,34)"/><rect x="68" y="36" width="4" height="4" transform="rotate(0,70,38)"/><rect x="68" y="40" width="4" height="4" transform="rotate(0,70,42)"/><rect x="68" y="52" width="4" height="4" transform="rotate(0,70,54)"/><rect x="68" y="64" width="4" height="4" transform="rotate(0,70,66)"/><rect x="68" y="80" width="4" height="4" transform="rotate(0,70,82)"/><rect x="72" y="40" width="4" height="4" transform="rotate(0,74,42)"/><rect x="72" y="44" width="4" height="4" transform="rotate(0,74,46)"/><rect x="72" y="48" width="4" height="4" transform="rotate(0,74,50)"/><rect x="72" y="52" width="4" height="4" transform="rotate(0,74,54)"/><rect x="72" y="56" width="4" height="4" transform="rotate(0,74,58)"/><rect x="72" y="64" width="4" height="4" transform="rotate(0,74,66)"/><rect x="72" y="72" width="4" height="4" transform="rotate(0,74,74)"/><rect x="72" y="80" width="4" height="4" transform="rotate(0,74,82)"/><rect x="76" y="32" width="4" height="4" transform="rotate(0,78,34)"/><rect x="76" y="36" width="4" height="4" transform="rotate(0,78,38)"/><rect x="76" y="48" width="4" height="4" transform="rotate(0,78,50)"/><rect x="76" y="56" width="4" height="4" transform="rotate(0,78,58)"/><rect x="76" y="60" width="4" height="4" transform="rotate(0,78,62)"/><rect x="76" y="64" width="4" height="4" transform="rotate(0,78,66)"/><rect x="76" y="80" width="4" height="4" transform="rotate(0,78,82)"/><rect x="76" y="84" width="4" height="4" transform="rotate(0,78,86)"/><rect x="76" y="88" width="4" height="4" transform="rotate(0,78,90)"/><rect x="76" y="92" width="4" height="4" transform="rotate(0,78,94)"/><rect x="80" y="32" width="4" height="4" transform="rotate(0,82,34)"/><rect x="80" y="36" width="4" height="4" transform="rotate(0,82,38)"/><rect x="80" y="48" width="4" height="4" transform="rotate(0,82,50)"/><rect x="80" y="56" width="4" height="4" transform="rotate(0,82,58)"/><rect x="80" y="64" width="4" height="4" transform="rotate(0,82,66)"/><rect x="80" y="68" width="4" height="4" transform="rotate(0,82,70)"/><rect x="80" y="72" width="4" height="4" transform="rotate(0,82,74)"/><rect x="80" y="76" width="4" height="4" transform="rotate(0,82,78)"/><rect x="80" y="80" width="4" height="4" transform="rotate(0,82,82)"/><rect x="80" y="84" width="4" height="4" transform="rotate(0,82,86)"/><rect x="80" y="88" width="4" height="4" transform="rotate(0,82,90)"/><rect x="80" y="92" width="4" height="4" transform="rotate(0,82,94)"/><rect x="84" y="44" width="4" height="4" transform="rotate(0,86,46)"/><rect x="84" y="60" width="4" height="4" transform="rotate(0,86,62)"/><rect x="84" y="68" width="4" height="4" transform="rotate(0,86,70)"/><rect x="84" y="72" width="4" height="4" transform="rotate(0,86,74)"/><rect x="84" y="76" width="4" height="4" transform="rotate(0,86,78)"/><rect x="84" y="88" width="4" height="4" transform="rotate(0,86,90)"/><rect x="84" y="92" width="4" height="4" transform="rotate(0,86,94)"/><rect x="84" y="96" width="4" height="4" transform="rotate(0,86,98)"/><rect x="88" y="36" width="4" height="4" transform="rotate(0,90,38)"/><rect x="88" y="40" width="4" height="4" transform="rotate(0,90,42)"/><rect x="88" y="44" width="4" height="4" transform="rotate(0,90,46)"/><rect x="88" y="48" width="4" height="4" transform="rotate(0,90,50)"/><rect x="88" y="64" width="4" height="4" transform="rotate(0,90,66)"/><rect x="88" y="72" width="4" height="4" transform="rotate(0,90,74)"/><rect x="88" y="84" width="4" height="4" transform="rotate(0,90,86)"/><rect x="88" y="92" width="4" height="4" transform="rotate(0,90,94)"/><rect x="92" y="32" width="4" height="4" transform="rotate(0,94,34)"/><rect x="92" y="36" width="4" height="4" transform="rotate(0,94,38)"/><rect x="92" y="48" width="4" height="4" transform="rotate(0,94,50)"/><rect x="92" y="56" width="4" height="4" transform="rotate(0,94,58)"/><rect x="92" y="76" width="4" height="4" transform="rotate(0,94,78)"/><rect x="92" y="80" width="4" height="4" transform="rotate(0,94,82)"/><rect x="92" y="84" width="4" height="4" transform="rotate(0,94,86)"/><rect x="92" y="88" width="4" height="4" transform="rotate(0,94,90)"/><rect x="92" y="92" width="4" height="4" transform="rotate(0,94,94)"/><rect x="96" y="32" width="4" height="4" transform="rotate(0,98,34)"/><rect x="96" y="40" width="4" height="4" transform="rotate(0,98,42)"/><rect x="96" y="52" width="4" height="4" transform="rotate(0,98,54)"/><rect x="96" y="60" width="4" height="4" transform="rotate(0,98,62)"/><rect x="96" y="72" width="4" height="4" transform="rotate(0,98,74)"/><rect x="96" y="88" width="4" height="4" transform="rotate(0,98,90)"/><rect x="96" y="92" width="4" height="4" transform="rotate(0,98,94)"/><rect x="96" y="96" width="4" height="4" transform="rotate(0,98,98)"/><rect x="0" y="0" width="4" height="4" transform="rotate(0,2,2)"/><rect x="0" y="4" width="4" height="4" transform="rotate(0,2,6)"/><rect x="0" y="8" width="4" height="4" transform="rotate(0,2,10)"/><rect x="0" y="12" width="4" height="4" transform="rotate(0,2,14)"/><rect x="0" y="16" width="4" height="4" transform="rotate(0,2,18)"/><rect x="0" y="20" width="4" height="4" transform="rotate(0,2,22)"/><rect x="0" y="24" width="4" height="4" transform="rotate(0,2,26)"/><rect x="4" y="0" width="4" height="4" transform="rotate(0,6,2)"/><rect x="4" y="24" width="4" height="4" transform="rotate(0,6,26)"/><rect x="8" y="0" width="4" height="4" transform="rotate(0,10,2)"/><rect x="8" y="24" width="4" height="4" transform="rotate(0,10,26)"/><rect x="12" y="0" width="4" height="4" transform="rotate(0,14,2)"/><rect x="12" y="24" width="4" height="4" transform="rotate(0,14,26)"/><rect x="16" y="0" width="4" height="4" transform="rotate(0,18,2)"/><rect x="16" y="24" width="4" height="4" transform="rotate(0,18,26)"/><rect x="20" y="0" width="4" height="4" transform="rotate(0,22,2)"/><rect x="20" y="24" width="4" height="4" transform="rotate(0,22,26)"/><rect x="24" y="0" width="4" height="4" transform="rotate(0,26,2)"/><rect x="24" y="4" width="4" height="4" transform="rotate(0,26,6)"/><rect x="24" y="8" width="4" height="4" transform="rotate(0,26,10)"/><rect x="24" y="12" width="4" height="4" transform="rotate(0,26,14)"/><rect x="24" y="16" width="4" height="4" transform="rotate(0,26,18)"/><rect x="24" y="20" width="4" height="4" transform="rotate(0,26,22)"/><rect x="24" y="24" width="4" height="4" transform="rotate(0,26,26)"/><rect x="8" y="8" width="4" height="4" transform="rotate(0,10,10)"/><rect x="8" y="12" width="4" height="4" transform="rotate(0,10,14)"/><rect x="8" y="16" width="4" height="4" transform="rotate(0,10,18)"/><rect x="12" y="8" width="4" height="4" transform="rotate(0,14,10)"/><rect x="12" y="12" width="4" height="4" transform="rotate(0,14,14)"/><rect x="12" y="16" width="4" height="4" transform="rotate(0,14,18)"/><rect x="16" y="8" width="4" height="4" transform="rotate(0,18,10)"/><rect x="16" y="12" width="4" height="4" transform="rotate(0,18,14)"/><rect x="16" y="16" width="4" height="4" transform="rotate(0,18,18)"/><rect x="72" y="0" width="4" height="4" transform="rotate(0,74,2)"/><rect x="72" y="4" width="4" height="4" transform="rotate(0,74,6)"/><rect x="72" y="8" width="4" height="4" transform="rotate(0,74,10)"/><rect x="72" y="12" width="4" height="4" transform="rotate(0,74,14)"/><rect x="72" y="16" width="4" height="4" transform="rotate(0,74,18)"/><rect x="72" y="20" width="4" height="4" transform="rotate(0,74,22)"/><rect x="72" y="24" width="4" height="4" transform="rotate(0,74,26)"/><rect x="76" y="0" width="4" height="4" transform="rotate(0,78,2)"/><rect x="76" y="24" width="4" height="4" transform="rotate(0,78,26)"/><rect x="80" y="0" width="4" height="4" transform="rotate(0,82,2)"/><rect x="80" y="24" width="4" height="4" transform="rotate(0,82,26)"/><rect x="84" y="0" width="4" height="4" transform="rotate(0,86,2)"/><rect x="84" y="24" width="4" height="4" transform="rotate(0,86,26)"/><rect x="88" y="0" width="4" height="4" transform="rotate(0,90,2)"/><rect x="88" y="24" width="4" height="4" transform="rotate(0,90,26)"/><rect x="92" y="0" width="4" height="4" transform="rotate(0,94,2)"/><rect x="92" y="24" width="4" height="4" transform="rotate(0,94,26)"/><rect x="96" y="0" width="4" height="4" transform="rotate(0,98,2)"/><rect x="96" y="4" width="4" height="4" transform="rotate(0,98,6)"/><rect x="96" y="8" width="4" height="4" transform="rotate(0,98,10)"/><rect x="96" y="12" width="4" height="4" transform="rotate(0,98,14)"/><rect x="96" y="16" width="4" height="4" transform="rotate(0,98,18)"/><rect x="96" y="20" width="4" height="4" transform="rotate(0,98,22)"/><rect x="96" y="24" width="4" height="4" transform="rotate(0,98,26)"/><rect x="80" y="8" width="4" height="4" transform="rotate(0,82,10)"/><rect x="80" y="12" width="4" height="4" transform="rotate(0,82,14)"/><rect x="80" y="16" width="4" height="4" transform="rotate(0,82,18)"/><rect x="84" y="8" width="4" height="4" transform="rotate(0,86,10)"/><rect x="84" y="12" width="4" height="4" transform="rotate(0,86,14)"/><rect x="84" y="16" width="4" height="4" transform="rotate(0,86,18)"/><rect x="88" y="8" width="4" height="4" transform="rotate(0,90,10)"/><rect x="88" y="12" width="4" height="4" transform="rotate(0,90,14)"/><rect x="88" y="16" width="4" height="4" transform="rotate(0,90,18)"/><rect x="0" y="72" width="4" height="4" transform="rotate(0,2,74)"/><rect x="0" y="76" width="4" height="4" transform="rotate(0,2,78)"/><rect x="0" y="80" width="4" height="4" transform="rotate(0,2,82)"/><rect x="0" y="84" width="4" height="4" transform="rotate(0,2,86)"/><rect x="0" y="88" width="4" height="4" transform="rotate(0,2,90)"/><rect x="0" y="92" width="4" height="4" transform="rotate(0,2,94)"/><rect x="0" y="96" width="4" height="4" transform="rotate(0,2,98)"/><rect x="4" y="72" width="4" height="4" transform="rotate(0,6,74)"/><rect x="4" y="96" width="4" height="4" transform="rotate(0,6,98)"/><rect x="8" y="72" width="4" height="4" transform="rotate(0,10,74)"/><rect x="8" y="96" width="4" height="4" transform="rotate(0,10,98)"/><rect x="12" y="72" width="4" height="4" transform="rotate(0,14,74)"/><rect x="12" y="96" width="4" height="4" transform="rotate(0,14,98)"/><rect x="16" y="72" width="4" height="4" transform="rotate(0,18,74)"/><rect x="16" y="96" width="4" height="4" transform="rotate(0,18,98)"/><rect x="20" y="72" width="4" height="4" transform="rotate(0,22,74)"/><rect x="20" y="96" width="4" height="4" transform="rotate(0,22,98)"/><rect x="24" y="72" width="4" height="4" transform="rotate(0,26,74)"/><rect x="24" y="76" width="4" height="4" transform="rotate(0,26,78)"/><rect x="24" y="80" width="4" height="4" transform="rotate(0,26,82)"/><rect x="24" y="84" width="4" height="4" transform="rotate(0,26,86)"/><rect x="24" y="88" width="4" height="4" transform="rotate(0,26,90)"/><rect x="24" y="92" width="4" height="4" transform="rotate(0,26,94)"/><rect x="24" y="96" width="4" height="4" transform="rotate(0,26,98)"/><rect x="8" y="80" width="4" height="4" transform="rotate(0,10,82)"/><rect x="8" y="84" width="4" height="4" transform="rotate(0,10,86)"/><rect x="8" y="88" width="4" height="4" transform="rotate(0,10,90)"/><rect x="12" y="80" width="4" height="4" transform="rotate(0,14,82)"/><rect x="12" y="84" width="4" height="4" transform="rotate(0,14,86)"/><rect x="12" y="88" width="4" height="4" transform="rotate(0,14,90)"/><rect x="16" y="80" width="4" height="4" transform="rotate(0,18,82)"/><rect x="16" y="84" width="4" height="4" transform="rotate(0,18,86)"/><rect x="16" y="88" width="4" height="4" transform="rotate(0,18,90)"/></clipPath></defs><rect x="0" y="0" height="100" width="100" clip-path="url('#clip-path-background-color')" fill="rgba(0,0,0,0)"/><rect x="0" y="0" height="100" width="100" clip-path="url('#clip-path-dot-color')" fill="#000000"/></svg>