<svg xmlns="http://www.w3.org/2000/svg" viewBox="0 0 145.02 165.33"><defs><style>.cls-1{fill:#fff;}.cls-2{fill:#f5cb34;}</style></defs><g id="圖層_2" data-name="圖層 2"><g id="圖層_1-2" data-name="圖層 1"><path class="cls-1" d="M93.41,165.33C53.09,84.42,0,67.39,0,67.39,22.68,62,15.13,9.84,15.13,9.84S41.81,71,71.08,0c0,0-13.08,83.65,45.45,28,0,0-43.55,64.78,14.26,52,0,0-53.76,38.87,14.23,36.41C145,116.42,83,144.41,93.41,165.33Z"/><path class="cls-2" d="M83.06,146.34C54.38,103.17,15.68,75.06,15.68,75.06c16.39-3.89,7.13-34.44,7.13-34.44s19.28,44.17,40.43-7.11c0,0-9.45,60.45,32.85,20.21,0,0-31.47,46.81,10.3,37.61,0,0-38.84,28.09,10.29,26.31C116.68,117.64,73.71,132.27,83.06,146.34Z"/></g></g></svg>