<?xml version="1.0" encoding="utf-8"?>
<!-- Generator: Adobe Illustrator 26.0.0, SVG Export Plug-In . SVG Version: 6.00 Build 0)  -->
<svg version="1.1" id="圖層_1" xmlns="http://www.w3.org/2000/svg" xmlns:xlink="http://www.w3.org/1999/xlink" x="0px" y="0px"
	 viewBox="0 0 24 24" style="enable-background:new 0 0 24 24;" xml:space="preserve">
<style type="text/css">
	.st0{fill:#1E65B1;}
</style>
<path class="st0" d="M17.8,14c1.2,0,2.2,1,2.2,2.2v0.9c0,1.1-0.5,2.1-1.3,2.8c-1.6,1.3-3.8,2-6.7,2s-5.1-0.7-6.7-2
	C4.5,19.3,4,18.2,4,17.2v-0.9C4,15,5,14,6.3,14H17.8z M17.8,15.5H6.3c-0.4,0-0.8,0.3-0.8,0.8v0.9c0,0.7,0.3,1.3,0.8,1.7
	c1.3,1.1,3.2,1.6,5.7,1.6s4.5-0.6,5.7-1.6c0.5-0.4,0.8-1.1,0.8-1.7v-0.9C18.5,15.8,18.2,15.5,17.8,15.5z M11.9,2L12,2
	c0.4,0,0.7,0.3,0.7,0.6l0,0.1v0.8h3.5c1.2,0,2.2,1,2.2,2.2l0,0v4.5c0,1.2-1,2.2-2.2,2.2H7.8c-1.2,0-2.2-1-2.2-2.2V5.8
	c0-1.2,1-2.2,2.2-2.2h3.5V2.8C11.3,2.4,11.5,2.1,11.9,2L12,2L11.9,2L11.9,2z M16.2,5H7.8C7.3,5,7,5.3,7,5.8v4.5
	C7,10.7,7.3,11,7.8,11h8.5c0.4,0,0.8-0.3,0.8-0.8V5.8C17,5.3,16.7,5,16.2,5z M9.8,6.5c0.7,0,1.2,0.6,1.2,1.2S10.4,9,9.8,9
	S8.5,8.4,8.5,7.8S9.1,6.5,9.8,6.5z M14.2,6.5c0.7,0,1.3,0.5,1.3,1.2S15,9,14.3,9c0,0,0,0-0.1,0C13.6,9,13,8.4,13,7.7
	C13,7.1,13.6,6.5,14.2,6.5z"/>
</svg>
