<?xml version="1.0" encoding="utf-8"?>
<!-- Generator: Adobe Illustrator 26.0.0, SVG Export Plug-In . SVG Version: 6.00 Build 0)  -->
<svg version="1.1" id="圖層_1" xmlns="http://www.w3.org/2000/svg" xmlns:xlink="http://www.w3.org/1999/xlink" x="0px" y="0px"
	 viewBox="0 0 24 24" style="enable-background:new 0 0 24 24;" xml:space="preserve">
<style type="text/css">
	.st0{fill:#FFFFFF;}
</style>
<path class="st0" d="M4.2,4.4L4.2,4.4c0.4-0.5,1-0.5,1.4-0.2l0.1,0.1l6.3,6.3l6.3-6.3c0.4-0.4,1-0.4,1.4,0s0.4,1,0,1.4c0,0,0,0,0,0
	L13.4,12l6.3,6.3c0.4,0.4,0.4,0.9,0.1,1.3l-0.1,0.1c-0.4,0.4-0.9,0.4-1.3,0.1l-0.1-0.1L12,13.4l-6.3,6.3c-0.4,0.4-1,0.4-1.4,0
	c-0.4-0.4-0.4-1,0-1.4l6.3-6.3L4.3,5.7C3.9,5.4,3.9,4.8,4.2,4.4L4.2,4.4C4.3,4.3,4.2,4.4,4.2,4.4z"/>
</svg>
