<?xml version="1.0" encoding="utf-8"?>
<!-- Generator: Adobe Illustrator 26.0.0, SVG Export Plug-In . SVG Version: 6.00 Build 0)  -->
<svg version="1.1" id="圖層_1" xmlns="http://www.w3.org/2000/svg" xmlns:xlink="http://www.w3.org/1999/xlink" x="0px" y="0px"
	 viewBox="0 0 24 24" style="enable-background:new 0 0 24 24;" xml:space="preserve">
<style type="text/css">
	.st0{fill:#792F1E;}
</style>
<path class="st0" d="M21,3c1.4,1.4,1.4,3.7,0,5.1l-12,12c-0.3,0.3-0.6,0.5-1,0.6L2.9,22c-0.4,0.1-0.8-0.1-0.9-0.5c0-0.1,0-0.3,0-0.4
	l1.4-5.1c0.1-0.4,0.3-0.7,0.6-1L16,3C17.4,1.6,19.6,1.6,21,3z M15,6.1L5.1,16c-0.1,0.1-0.2,0.2-0.2,0.3l-1,3.9l3.8-1
	c0.1,0,0.2-0.1,0.3-0.2L17.9,9L15,6.1z M17,4l-1,1L19,7.9l1-1c0.8-0.8,0.8-2.1,0-2.9C19.1,3.2,17.8,3.2,17,4z"/>
</svg>
