<?xml version="1.0" encoding="utf-8"?>
<!-- Generator: Adobe Illustrator 26.0.0, SVG Export Plug-In . SVG Version: 6.00 Build 0)  -->
<svg version="1.1" id="圖層_1" xmlns="http://www.w3.org/2000/svg" xmlns:xlink="http://www.w3.org/1999/xlink" x="0px" y="0px"
	 viewBox="0 0 24 24" style="enable-background:new 0 0 24 24;" xml:space="preserve">
<style type="text/css">
	.st0{fill:#4D2764;}
</style>
<path class="st0" d="M12,4C9.2,4,7,6.2,7,9c0,0.4,0.3,0.8,0.8,0.8c0.4,0,0.8-0.3,0.8-0.8c0-1.9,1.6-3.5,3.5-3.5s3.5,1.6,3.5,3.5
	c0,0.9-0.2,1.4-0.5,1.9c-0.3,0.5-0.8,0.8-1.3,1.2l-0.1,0.1c-1,0.8-2.3,1.7-2.3,3.8v0.2c0,0.4,0.3,0.8,0.8,0.8s0.8-0.3,0.8-0.8V16
	c0-1.3,0.7-1.9,1.8-2.7l0,0c0.5-0.4,1.1-0.9,1.6-1.6C16.7,11,17,10.1,17,9C17,6.2,14.8,4,12,4z M12,21c0.6,0,1-0.4,1-1s-0.4-1-1-1
	s-1,0.4-1,1S11.4,21,12,21z"/>
</svg>
