<?xml version="1.0" encoding="utf-8"?>
<!-- Generator: Adobe Illustrator 26.0.0, SVG Export Plug-In . SVG Version: 6.00 Build 0)  -->
<svg version="1.1" id="圖層_1" xmlns="http://www.w3.org/2000/svg" xmlns:xlink="http://www.w3.org/1999/xlink" x="0px" y="0px"
	 viewBox="0 0 24 24" style="enable-background:new 0 0 24 24;" xml:space="preserve">
<style type="text/css">
	.st0{fill:#FFFFFF;}
</style>
<path class="st0" d="M15,4.2c0-1.1-1.3-1.7-2.1-0.9l-4.5,4C8.3,7.4,8.1,7.5,7.9,7.5H4.2C3,7.5,2,8.5,2,9.7v4.5c0,1.2,1,2.2,2.2,2.2
	h3.7c0.2,0,0.4,0.1,0.5,0.2l4.5,4c0.8,0.7,2.1,0.1,2.1-0.9C15,19.7,15,4.2,15,4.2z M16.2,9.2c0.3-0.3,0.8-0.3,1.1,0l1.7,1.7l1.7-1.7
	c0.3-0.3,0.8-0.3,1.1,0s0.3,0.8,0,1.1c0,0,0,0,0,0L20.1,12l1.7,1.7c0.3,0.3,0.3,0.8,0,1.1c-0.3,0.3-0.8,0.3-1.1,0c0,0,0,0,0,0
	L19,13.1l-1.7,1.7c-0.3,0.3-0.8,0.3-1.1,0s-0.3-0.8,0-1.1c0,0,0,0,0,0l1.7-1.7l-1.7-1.7C15.9,10,15.9,9.5,16.2,9.2z"/>
</svg>
